# xmcd CD database file
#
# Track frame offsets:
#	150
#	12385
#	26130
#	40217
#	56987
#	74557
#	88312
#	100855
#	117580
#	136075
#
# Disc length: 2032 seconds
#
# Revision: 0
# Processed by: cddbd v1.5.2PL0 Copyright (c) Steve Scherf et al.
# Submitted via: CDex 1.51
#
DISCID=9307ee0a
DTITLE=Elbow - Piss 'N' Moan
DYEAR=1996
DGENRE=Country
TTITLE0=Black Eyes Of Doom
TTITLE1=Sex Trap
TTITLE2=Wayne
TTITLE3=Silvertone
TTITLE4=Kabob
TTITLE5=Piss 'N' Moan
TTITLE6=Gitdownlow
TTITLE7=Manhattan Dark Eye
TTITLE8=In Blood
TTITLE9=The Ringer
EXTD=YEAR: 1996
EXTT0=
EXTT1=
EXTT2=
EXTT3=
EXTT4=
EXTT5=
EXTT6=
EXTT7=
EXTT8=
EXTT9=
PLAYORDER=
